HIERARCHY
ROOT Hips
{
	OFFSET 0.000000 0.000000 0.000000
	CHANNELS 6 Xposition Yposition Zposition Zrotation Yrotation Xrotation 
	JOINT LHipJoint
	{
		OFFSET 0.000000 0.000000 0.000000
		CHANNELS 3 Zrotation Yrotation Xrotation
		JOINT LeftUpLeg
		{
			OFFSET 1.363060 -1.794630 0.839290
			CHANNELS 3 Zrotation Yrotation Xrotation
			JOINT LeftLeg
			{
				OFFSET 2.448110 -6.726130 0.000000
				CHANNELS 3 Zrotation Yrotation Xrotation
				JOINT LeftFoot
				{
					OFFSET 2.562200 -7.039590 0.000000
					CHANNELS 3 Zrotation Yrotation Xrotation
					JOINT LeftToeBase
					{
						OFFSET 0.157640 -0.433110 2.322550
						CHANNELS 3 Zrotation Yrotation Xrotation
						End Site
						{
							OFFSET 0.000000 0.000000 0.000000
						}
					}
				}
			}
		}
	}
	JOINT RHipJoint
	{
		OFFSET 0.000000 0.000000 0.000000
		CHANNELS 3 Zrotation Yrotation Xrotation
		JOINT RightUpLeg
		{
			OFFSET -1.305520 -1.794630 0.839290
			CHANNELS 3 Zrotation Yrotation Xrotation
			JOINT RightLeg
			{
				OFFSET -2.542530 -6.985550 0.000000
				CHANNELS 3 Zrotation Yrotation Xrotation
				JOINT RightFoot
				{
					OFFSET -2.568260 -7.056230 0.000000
					CHANNELS 3 Zrotation Yrotation Xrotation
					JOINT RightToeBase
					{
						OFFSET -0.164730 -0.452590 2.363150
						CHANNELS 3 Zrotation Yrotation Xrotation
						End Site
						{
							OFFSET 0.000000 0.000000 0.000000
						}
					}
				}
			}
		}
	}
	JOINT LowerBack
	{
		OFFSET 0.000000 0.000000 0.000000
		CHANNELS 3 Zrotation Yrotation Xrotation
		JOINT Spine
		{
			OFFSET 0.028270 2.035590 -0.193380
			CHANNELS 3 Zrotation Yrotation Xrotation
			JOINT Spine1
			{
				OFFSET 0.056720 2.048850 -0.042750
				CHANNELS 3 Zrotation Yrotation Xrotation
				JOINT Neck
				{
					OFFSET 0.000000 0.000000 0.000000
					CHANNELS 3 Zrotation Yrotation Xrotation
					JOINT Neck1
					{
						OFFSET -0.054170 1.746240 0.172020
						CHANNELS 3 Zrotation Yrotation Xrotation
						JOINT Head
						{
							OFFSET 0.104070 1.761360 -0.123970
							CHANNELS 3 Zrotation Yrotation Xrotation
							End Site
							{
								OFFSET 0.000000 0.000000 0.000000
							}
						}
					}
				}
				JOINT LeftShoulder
				{
					OFFSET 0.000000 0.000000 0.000000
					CHANNELS 3 Zrotation Yrotation Xrotation
					JOINT LeftArm
					{
						OFFSET 3.362410 1.200890 -0.311210
						CHANNELS 3 Zrotation Yrotation Xrotation
						JOINT LeftForeArm
						{
							OFFSET 4.983000 -0.000000 -0.000000
							CHANNELS 3 Zrotation Yrotation Xrotation
							JOINT LeftHand
							{
								OFFSET 3.483560 -0.000000 -0.000000
								CHANNELS 3 Zrotation Yrotation Xrotation
								JOINT LeftFingerBase
								{
									OFFSET 0.000000 0.000000 0.000000
									CHANNELS 3 Zrotation Yrotation Xrotation
									JOINT LeftHandIndex1
									{
										OFFSET 0.715260 -0.000000 -0.000000
										CHANNELS 3 Zrotation Yrotation Xrotation
										End Site
										{
											OFFSET 0.000000 0.000000 0.000000
										}
									}
								}
								JOINT LThumb
								{
									OFFSET 0.000000 0.000000 0.000000
									CHANNELS 3 Zrotation Yrotation Xrotation
									End Site
									{
										OFFSET 0.000000 0.000000 0.000000
									}
								}
							}
						}
					}
				}
				JOINT RightShoulder
				{
					OFFSET 0.000000 0.000000 0.000000
					CHANNELS 3 Zrotation Yrotation Xrotation
					JOINT RightArm
					{
						OFFSET -3.136600 1.374050 -0.404650
						CHANNELS 3 Zrotation Yrotation Xrotation
						JOINT RightForeArm
						{
							OFFSET -5.241900 -0.000000 -0.000000
							CHANNELS 3 Zrotation Yrotation Xrotation
							JOINT RightHand
							{
								OFFSET -3.444170 -0.000000 -0.000000
								CHANNELS 3 Zrotation Yrotation Xrotation
								JOINT RightFingerBase
								{
									OFFSET 0.000000 0.000000 0.000000
									CHANNELS 3 Zrotation Yrotation Xrotation
									JOINT RightHandIndex1
									{
										OFFSET -0.622530 -0.000000 -0.000000
										CHANNELS 3 Zrotation Yrotation Xrotation
										End Site
										{
											OFFSET 0.000000 0.000000 0.000000
										}
									}
								}
								JOINT RThumb
								{
									OFFSET 0.000000 0.000000 0.000000
									CHANNELS 3 Zrotation Yrotation Xrotation
									End Site
									{
										OFFSET 0.000000 0.000000 0.000000
									}
								}
							}
						}
					}
				}
			}
		}
	}
}
MOTION
Frames: 4
Frame Time: 0.008333
3.179617 17.192345 0.886718 -162.512428 -86.322160 164.797351 -9.735411 1.273739 2.125469 -15.183405 4.795242 -25.070493 -2.427249 -0.283454 15.377705 1.819726 8.936385 -10.529372 -0.447699 0.000000 -25.113100 10.622939 -4.066234 -2.413134 0.581537 -19.014624 3.754510 -0.026429 -2.847098 35.666638 -0.332034 9.936677 26.734867 5.668000 0.000001 -88.014600 0.365221 1.333823 -1.207978 -0.385151 1.286744 -2.564709 -4.709249 1.250476 2.773371 8.012159 -10.730783 -9.633191 -1.441338 -0.087263 -0.514494 0.000000 0.000000 0.000000 -5.767553 25.613235 1.679995 -80.959607 30.330404 -5.236560 -4.158064 -10.324541 -0.029723 -5.364619 11.222436 -0.529437 -0.068426 -0.167441 -0.000000 0.000000 0.000000 0.000000 0.000000 0.000000 0.000000 7.509579 -5.357332 0.032944 51.151037 12.506954 6.589984 2.665112 36.991745 0.009312 2.080652 3.076825 0.055888 0.084820 -0.098894 0.000000 0.000000 0.000000 0.000000 0.000000 0.000000 0.000000 
2.941153 17.154515 0.872508 -167.324749 -86.278590 169.361704 -9.815094 1.381745 2.066771 -15.307746 4.880240 -24.661389 -2.406569 -0.132153 16.762850 1.799191 8.857283 -10.697221 -0.489300 0.000000 -24.214700 10.736822 -3.924808 -2.556512 -0.360453 -19.824022 2.665129 -0.244480 -2.909492 38.689103 -0.578452 9.554116 28.902126 5.866200 0.000000 -86.340500 -0.106805 1.247535 -1.043772 -0.483315 1.237905 -2.544425 -4.776383 1.203492 2.750437 8.251478 -10.804500 -9.674097 -1.473205 -0.088979 -0.526815 0.000000 0.000000 0.000000 -5.618960 25.498285 1.693943 -81.156593 30.141057 -4.708948 -4.158812 -10.672404 -0.030868 -5.762339 11.588939 -0.587955 -0.065666 -0.168698 -0.000000 0.000000 0.000000 0.000000 0.000000 0.000000 0.000000 7.903912 -5.425744 0.035905 51.516396 12.037001 6.404775 2.695107 36.864194 0.009451 2.098147 3.128956 0.057296 0.085623 -0.098160 0.000000 0.000000 0.000000 0.000000 0.000000 0.000000 0.000000 
2.704821 17.115419 0.855710 -173.035754 -86.244995 174.863913 -9.910188 1.483659 1.974325 -15.537248 5.199661 -24.414758 -2.403970 0.020756 18.269728 1.764669 8.678903 -10.924041 -0.538600 -0.000000 -23.160799 10.817985 -3.781346 -2.669045 -1.215354 -20.511779 1.448411 -0.427777 -2.967740 41.699591 -0.830273 8.586427 30.600591 5.623100 -0.000000 -83.650500 -0.646685 1.136145 -0.892945 -0.593189 1.166854 -2.529058 -4.845385 1.133594 2.719809 8.494425 -10.855217 -9.712167 -1.511249 -0.091250 -0.538204 0.000000 0.000000 0.000000 -5.493876 25.353897 1.703895 -81.255440 29.845918 -4.047032 -4.156447 -11.037862 -0.031793 -6.152853 11.863704 -0.643371 -0.062957 -0.169102 -0.000000 0.000000 0.000000 0.000000 0.000000 0.000000 0.000000 8.311509 -5.475611 0.037012 51.991659 11.541242 6.150670 2.729624 36.672985 0.009616 2.086483 3.201498 0.058208 0.086871 -0.097716 0.000000 0.000000 0.000000 0.000000 0.000000 0.000000 0.000000 
2.470973 17.076304 0.836808 -179.208882 -86.236250 -179.131864 -10.010922 1.568130 1.854329 -15.833701 5.688280 -24.288244 -2.410983 0.166928 19.860131 1.720364 8.424441 -11.213133 -0.595001 0.000000 -21.953500 10.876704 -3.654535 -2.751383 -1.947327 -21.071834 0.113664 -0.576234 -3.038347 44.652927 -1.076339 7.053103 31.699383 4.917500 0.000000 -80.248000 -1.220595 0.994315 -0.756130 -0.708999 1.065802 -2.517925 -4.915345 1.033190 2.682222 8.730824 -10.884454 -9.743801 -1.555698 -0.094167 -0.547738 0.000000 0.000000 0.000000 -5.393974 25.171642 1.709688 -81.254169 29.434548 -3.280230 -4.149009 -11.398642 -0.032379 -6.497545 12.028411 -0.689482 -0.060462 -0.168476 -0.000000 0.000000 0.000000 0.000000 0.000000 0.000000 0.000000 8.721922 -5.514198 0.033800 52.582649 11.014876 5.807026 2.767539 36.408178 0.009790 2.024305 3.300398 0.058022 0.088706 -0.097614 0.000000 0.000000 0.000000 0.000000 0.000000 0.000000 0.000000 
